<?xml version="1.0" encoding="UTF-8"?>
<svg id="Layer_2" data-name="Layer 2" xmlns="http://www.w3.org/2000/svg" xmlns:xlink="http://www.w3.org/1999/xlink" viewBox="0 0 710.05 554.68">
  <defs>
    <style>
      .cls-1 {
        fill: url(#linear-gradient-13);
        stroke-width: 5.53px;
      }

      .cls-1, .cls-2, .cls-3, .cls-4, .cls-5, .cls-6, .cls-7, .cls-8, .cls-9, .cls-10, .cls-11, .cls-12, .cls-13, .cls-14, .cls-15, .cls-16, .cls-17, .cls-18, .cls-19 {
        stroke: #000;
        stroke-miterlimit: 10;
      }

      .cls-2 {
        fill: url(#linear-gradient-12);
        stroke-width: 5.24px;
      }

      .cls-4 {
        fill: url(#linear-gradient-2);
        stroke-width: 2.29px;
      }

      .cls-5 {
        fill: url(#linear-gradient-5);
        stroke-width: 3.18px;
      }

      .cls-6 {
        fill: url(#linear-gradient-4);
        stroke-width: 2.88px;
      }

      .cls-7 {
        fill: url(#linear-gradient-8);
        stroke-width: 4.06px;
      }

      .cls-8 {
        fill: url(#linear-gradient);
        stroke-width: 2px;
      }

      .cls-9 {
        fill: url(#linear-gradient-16);
        stroke-width: 6.41px;
      }

      .cls-10 {
        fill: url(#linear-gradient-6);
        stroke-width: 3.47px;
      }

      .cls-11 {
        fill: url(#linear-gradient-9);
        stroke-width: 4.35px;
      }

      .cls-12 {
        fill: url(#linear-gradient-3);
        stroke-width: 2.59px;
      }

      .cls-13 {
        fill: url(#linear-gradient-11);
        stroke-width: 4.94px;
      }

      .cls-14 {
        fill: url(#linear-gradient-14);
        stroke-width: 5.82px;
      }

      .cls-15 {
        fill: url(#linear-gradient-17);
        stroke-width: 6.71px;
      }

      .cls-16 {
        fill: url(#linear-gradient-15);
        stroke-width: 6.12px;
      }

      .cls-17 {
        fill: url(#linear-gradient-7);
        stroke-width: 3.76px;
      }

      .cls-18 {
        fill: url(#linear-gradient-18);
        stroke-width: 7px;
      }

      .cls-19 {
        fill: url(#linear-gradient-10);
        stroke-width: 4.65px;
      }
    </style>
    <linearGradient id="linear-gradient" x1="1" y1="262.09" x2="529.1" y2="262.09" gradientUnits="userSpaceOnUse">
      <stop offset="0" stop-color="#dd8cce"/>
      <stop offset=".27" stop-color="#fc969e"/>
      <stop offset=".3" stop-color="#fa9898"/>
      <stop offset=".39" stop-color="#f89e8f"/>
      <stop offset=".5" stop-color="#f8a08c"/>
      <stop offset=".77" stop-color="#564b48"/>
      <stop offset=".79" stop-color="#4c433f"/>
      <stop offset=".83" stop-color="#3f3833"/>
      <stop offset=".89" stop-color="#38322c"/>
      <stop offset="1" stop-color="#36312b"/>
    </linearGradient>
    <linearGradient id="linear-gradient-2" x1="2.06" y1="263.73" x2="530.16" y2="263.73" gradientUnits="userSpaceOnUse">
      <stop offset="0" stop-color="#dd8cce"/>
      <stop offset=".27" stop-color="#fb969f"/>
      <stop offset=".27" stop-color="#fa969d"/>
      <stop offset=".32" stop-color="#f99c94"/>
      <stop offset=".38" stop-color="#f99e91"/>
      <stop offset=".5" stop-color="#f8a08d"/>
      <stop offset=".68" stop-color="#946b63"/>
      <stop offset=".7" stop-color="#8a655e"/>
      <stop offset=".75" stop-color="#6f5852"/>
      <stop offset=".77" stop-color="#5e4f4b"/>
      <stop offset=".8" stop-color="#4e433e"/>
      <stop offset=".84" stop-color="#413a34"/>
      <stop offset=".89" stop-color="#3a342e"/>
      <stop offset="1" stop-color="#38332d"/>
    </linearGradient>
    <linearGradient id="linear-gradient-3" x1="3.12" y1="265.38" x2="531.22" y2="265.38" gradientUnits="userSpaceOnUse">
      <stop offset="0" stop-color="#dd8cce"/>
      <stop offset=".27" stop-color="#fb96a0"/>
      <stop offset=".27" stop-color="#fa969e"/>
      <stop offset=".32" stop-color="#f99b95"/>
      <stop offset=".38" stop-color="#f99d92"/>
      <stop offset=".5" stop-color="#f89f8d"/>
      <stop offset=".68" stop-color="#9a6f65"/>
      <stop offset=".71" stop-color="#906960"/>
      <stop offset=".75" stop-color="#755b55"/>
      <stop offset=".77" stop-color="#65534e"/>
      <stop offset=".78" stop-color="#62514c"/>
      <stop offset=".81" stop-color="#50443e"/>
      <stop offset=".85" stop-color="#433a35"/>
      <stop offset=".89" stop-color="#3c352f"/>
      <stop offset="1" stop-color="#3a342e"/>
    </linearGradient>
    <linearGradient id="linear-gradient-4" x1="4.18" y1="267.03" x2="532.28" y2="267.03" gradientUnits="userSpaceOnUse">
      <stop offset="0" stop-color="#dd8cce"/>
      <stop offset=".27" stop-color="#fa95a1"/>
      <stop offset=".28" stop-color="#fa969e"/>
      <stop offset=".32" stop-color="#fa9b95"/>
      <stop offset=".38" stop-color="#fa9d92"/>
      <stop offset=".5" stop-color="#f89f8e"/>
      <stop offset=".68" stop-color="#a17268"/>
      <stop offset=".71" stop-color="#976c63"/>
      <stop offset=".75" stop-color="#7c5f58"/>
      <stop offset=".77" stop-color="#6d5752"/>
      <stop offset=".78" stop-color="#64514c"/>
      <stop offset=".81" stop-color="#52453f"/>
      <stop offset=".85" stop-color="#453c36"/>
      <stop offset=".9" stop-color="#3e3731"/>
      <stop offset="1" stop-color="#3c3630"/>
    </linearGradient>
    <linearGradient id="linear-gradient-5" x1="5.24" y1="268.68" x2="533.34" y2="268.68" gradientUnits="userSpaceOnUse">
      <stop offset="0" stop-color="#dd8cce"/>
      <stop offset=".27" stop-color="#fa95a2"/>
      <stop offset=".28" stop-color="#fa969f"/>
      <stop offset=".32" stop-color="#fa9a96"/>
      <stop offset=".38" stop-color="#fa9c93"/>
      <stop offset=".5" stop-color="#f89f8e"/>
      <stop offset=".68" stop-color="#a7756a"/>
      <stop offset=".71" stop-color="#9d6f65"/>
      <stop offset=".75" stop-color="#82625a"/>
      <stop offset=".77" stop-color="#755b55"/>
      <stop offset=".79" stop-color="#66514b"/>
      <stop offset=".82" stop-color="#544540"/>
      <stop offset=".86" stop-color="#473d38"/>
      <stop offset=".9" stop-color="#403833"/>
      <stop offset="1" stop-color="#3e3732"/>
    </linearGradient>
    <linearGradient id="linear-gradient-6" x1="6.29" y1="270.32" x2="534.39" y2="270.32" gradientUnits="userSpaceOnUse">
      <stop offset="0" stop-color="#dd8cce"/>
      <stop offset=".27" stop-color="#f995a3"/>
      <stop offset=".28" stop-color="#f996a0"/>
      <stop offset=".32" stop-color="#f99a97"/>
      <stop offset=".38" stop-color="#fa9c94"/>
      <stop offset=".5" stop-color="#f99e8f"/>
      <stop offset=".68" stop-color="#ad786d"/>
      <stop offset=".71" stop-color="#a37268"/>
      <stop offset=".75" stop-color="#88655d"/>
      <stop offset=".77" stop-color="#7c5f58"/>
      <stop offset=".8" stop-color="#67524b"/>
      <stop offset=".82" stop-color="#554641"/>
      <stop offset=".86" stop-color="#483e39"/>
      <stop offset=".9" stop-color="#413a35"/>
      <stop offset="1" stop-color="#3f3934"/>
    </linearGradient>
    <linearGradient id="linear-gradient-7" x1="7.35" y1="271.97" x2="535.45" y2="271.97" gradientUnits="userSpaceOnUse">
      <stop offset="0" stop-color="#dd8cce"/>
      <stop offset=".27" stop-color="#f895a4"/>
      <stop offset=".28" stop-color="#f895a1"/>
      <stop offset=".32" stop-color="#f99998"/>
      <stop offset=".38" stop-color="#fa9b95"/>
      <stop offset=".5" stop-color="#f99e90"/>
      <stop offset=".68" stop-color="#b37c70"/>
      <stop offset=".71" stop-color="#a9766b"/>
      <stop offset=".76" stop-color="#8e685f"/>
      <stop offset=".77" stop-color="#84635b"/>
      <stop offset=".78" stop-color="#816159"/>
      <stop offset=".8" stop-color="#69524c"/>
      <stop offset=".83" stop-color="#574741"/>
      <stop offset=".86" stop-color="#4a3f3a"/>
      <stop offset=".91" stop-color="#433b36"/>
      <stop offset="1" stop-color="#413a35"/>
    </linearGradient>
    <linearGradient id="linear-gradient-8" x1="8.41" y1="273.62" x2="536.51" y2="273.62" gradientUnits="userSpaceOnUse">
      <stop offset="0" stop-color="#dd8cce"/>
      <stop offset=".25" stop-color="#f694a7"/>
      <stop offset=".27" stop-color="#f895a5"/>
      <stop offset=".28" stop-color="#f895a2"/>
      <stop offset=".32" stop-color="#f99999"/>
      <stop offset=".38" stop-color="#fa9b96"/>
      <stop offset=".5" stop-color="#f99e90"/>
      <stop offset=".68" stop-color="#ba7f72"/>
      <stop offset=".71" stop-color="#b0796d"/>
      <stop offset=".76" stop-color="#956c62"/>
      <stop offset=".77" stop-color="#8c675e"/>
      <stop offset=".78" stop-color="#836159"/>
      <stop offset=".81" stop-color="#6b534c"/>
      <stop offset=".83" stop-color="#594942"/>
      <stop offset=".87" stop-color="#4c413c"/>
      <stop offset=".91" stop-color="#453d38"/>
      <stop offset="1" stop-color="#433c37"/>
    </linearGradient>
    <linearGradient id="linear-gradient-9" x1="9.47" y1="275.26" x2="537.57" y2="275.26" gradientUnits="userSpaceOnUse">
      <stop offset="0" stop-color="#dd8cce"/>
      <stop offset=".23" stop-color="#f293ac"/>
      <stop offset=".27" stop-color="#f795a6"/>
      <stop offset=".28" stop-color="#f795a3"/>
      <stop offset=".32" stop-color="#f9989a"/>
      <stop offset=".38" stop-color="#fa9a97"/>
      <stop offset=".5" stop-color="#f99d91"/>
      <stop offset=".68" stop-color="#c08275"/>
      <stop offset=".71" stop-color="#b67c70"/>
      <stop offset=".76" stop-color="#9b6f64"/>
      <stop offset=".77" stop-color="#936b61"/>
      <stop offset=".78" stop-color="#856259"/>
      <stop offset=".81" stop-color="#6d554d"/>
      <stop offset=".84" stop-color="#5b4a44"/>
      <stop offset=".87" stop-color="#4e423d"/>
      <stop offset=".91" stop-color="#473e3a"/>
      <stop offset="1" stop-color="#453d39"/>
    </linearGradient>
    <linearGradient id="linear-gradient-10" x1="10.53" y1="276.91" x2="538.63" y2="276.91" gradientUnits="userSpaceOnUse">
      <stop offset="0" stop-color="#dd8cce"/>
      <stop offset=".21" stop-color="#f091b0"/>
      <stop offset=".27" stop-color="#f794a6"/>
      <stop offset=".28" stop-color="#f794a3"/>
      <stop offset=".32" stop-color="#fa989a"/>
      <stop offset=".38" stop-color="#fb9a97"/>
      <stop offset=".5" stop-color="#f99d91"/>
      <stop offset=".68" stop-color="#c68677"/>
      <stop offset=".71" stop-color="#bc8072"/>
      <stop offset=".76" stop-color="#a17267"/>
      <stop offset=".77" stop-color="#9b6f65"/>
      <stop offset=".79" stop-color="#87635a"/>
      <stop offset=".81" stop-color="#6f564e"/>
      <stop offset=".84" stop-color="#5d4b45"/>
      <stop offset=".87" stop-color="#50443e"/>
      <stop offset=".91" stop-color="#49403b"/>
      <stop offset="1" stop-color="#473f3a"/>
    </linearGradient>
    <linearGradient id="linear-gradient-11" x1="11.59" y1="278.56" x2="539.69" y2="278.56" gradientUnits="userSpaceOnUse">
      <stop offset="0" stop-color="#dd8cce"/>
      <stop offset=".19" stop-color="#ee91b3"/>
      <stop offset=".27" stop-color="#f694a7"/>
      <stop offset=".28" stop-color="#f694a4"/>
      <stop offset=".32" stop-color="#f9979b"/>
      <stop offset=".38" stop-color="#fb9998"/>
      <stop offset=".5" stop-color="#f99c92"/>
      <stop offset=".68" stop-color="#cc897a"/>
      <stop offset=".71" stop-color="#c28375"/>
      <stop offset=".76" stop-color="#a7756a"/>
      <stop offset=".77" stop-color="#a27368"/>
      <stop offset=".79" stop-color="#89645b"/>
      <stop offset=".81" stop-color="#715750"/>
      <stop offset=".84" stop-color="#5f4c47"/>
      <stop offset=".87" stop-color="#524540"/>
      <stop offset=".91" stop-color="#4b413d"/>
      <stop offset="1" stop-color="#49403c"/>
    </linearGradient>
    <linearGradient id="linear-gradient-12" x1="12.65" y1="280.21" x2="540.75" y2="280.21" gradientUnits="userSpaceOnUse">
      <stop offset="0" stop-color="#dd8cce"/>
      <stop offset=".18" stop-color="#ec91b5"/>
      <stop offset=".27" stop-color="#f694a8"/>
      <stop offset=".28" stop-color="#f694a5"/>
      <stop offset=".32" stop-color="#f9979c"/>
      <stop offset=".38" stop-color="#fb9999"/>
      <stop offset=".5" stop-color="#f99c92"/>
      <stop offset=".68" stop-color="#d38c7c"/>
      <stop offset=".71" stop-color="#c98677"/>
      <stop offset=".77" stop-color="#ae796c"/>
      <stop offset=".77" stop-color="#aa776b"/>
      <stop offset=".78" stop-color="#a7756a"/>
      <stop offset=".8" stop-color="#8b655c"/>
      <stop offset=".82" stop-color="#735851"/>
      <stop offset=".84" stop-color="#614e48"/>
      <stop offset=".87" stop-color="#544742"/>
      <stop offset=".91" stop-color="#4d433f"/>
      <stop offset="1" stop-color="#4b423e"/>
    </linearGradient>
    <linearGradient id="linear-gradient-13" x1="13.71" y1="281.85" x2="541.81" y2="281.85" gradientUnits="userSpaceOnUse">
      <stop offset="0" stop-color="#dd8cce"/>
      <stop offset=".17" stop-color="#eb90b7"/>
      <stop offset=".27" stop-color="#f594a9"/>
      <stop offset=".28" stop-color="#f594a6"/>
      <stop offset=".32" stop-color="#f9979d"/>
      <stop offset=".38" stop-color="#fb989a"/>
      <stop offset=".5" stop-color="#f99c93"/>
      <stop offset=".68" stop-color="#d9907f"/>
      <stop offset=".71" stop-color="#cf8a7a"/>
      <stop offset=".77" stop-color="#b47c6f"/>
      <stop offset=".77" stop-color="#b27b6e"/>
      <stop offset=".78" stop-color="#aa766a"/>
      <stop offset=".8" stop-color="#8d665d"/>
      <stop offset=".82" stop-color="#755951"/>
      <stop offset=".85" stop-color="#634f49"/>
      <stop offset=".88" stop-color="#564843"/>
      <stop offset=".92" stop-color="#4f443f"/>
      <stop offset="1" stop-color="#4d433f"/>
    </linearGradient>
    <linearGradient id="linear-gradient-14" x1="14.76" y1="283.5" x2="542.87" y2="283.5" gradientUnits="userSpaceOnUse">
      <stop offset="0" stop-color="#dd8cce"/>
      <stop offset=".16" stop-color="#e990b9"/>
      <stop offset=".27" stop-color="#f494aa"/>
      <stop offset=".28" stop-color="#f594a7"/>
      <stop offset=".32" stop-color="#f9979e"/>
      <stop offset=".38" stop-color="#fb989b"/>
      <stop offset=".5" stop-color="#fa9b94"/>
      <stop offset=".68" stop-color="#df9382"/>
      <stop offset=".71" stop-color="#d58d7d"/>
      <stop offset=".77" stop-color="#ba7f71"/>
      <stop offset=".77" stop-color="#b97f71"/>
      <stop offset=".78" stop-color="#ab776a"/>
      <stop offset=".8" stop-color="#8e675d"/>
      <stop offset=".82" stop-color="#765b53"/>
      <stop offset=".85" stop-color="#64514b"/>
      <stop offset=".88" stop-color="#574a45"/>
      <stop offset=".92" stop-color="#504641"/>
      <stop offset="1" stop-color="#4e4541"/>
    </linearGradient>
    <linearGradient id="linear-gradient-15" x1="15.82" y1="285.15" x2="543.92" y2="285.15" gradientUnits="userSpaceOnUse">
      <stop offset="0" stop-color="#dd8cce"/>
      <stop offset=".16" stop-color="#e990bb"/>
      <stop offset=".27" stop-color="#f494ab"/>
      <stop offset=".28" stop-color="#f594a8"/>
      <stop offset=".32" stop-color="#f9969f"/>
      <stop offset=".38" stop-color="#fb979c"/>
      <stop offset=".5" stop-color="#fa9b94"/>
      <stop offset=".68" stop-color="#e59684"/>
      <stop offset=".71" stop-color="#db907f"/>
      <stop offset=".77" stop-color="#c18374"/>
      <stop offset=".78" stop-color="#ad786b"/>
      <stop offset=".8" stop-color="#90685e"/>
      <stop offset=".83" stop-color="#785b54"/>
      <stop offset=".85" stop-color="#66524c"/>
      <stop offset=".88" stop-color="#594b47"/>
      <stop offset=".92" stop-color="#524743"/>
      <stop offset="1" stop-color="#504643"/>
    </linearGradient>
    <linearGradient id="linear-gradient-16" x1="16.88" y1="286.79" x2="544.98" y2="286.79" gradientUnits="userSpaceOnUse">
      <stop offset="0" stop-color="#dd8cce"/>
      <stop offset=".15" stop-color="#e88fbc"/>
      <stop offset=".27" stop-color="#f393ac"/>
      <stop offset=".28" stop-color="#f493a8"/>
      <stop offset=".32" stop-color="#fa969f"/>
      <stop offset=".38" stop-color="#fc979c"/>
      <stop offset=".5" stop-color="#fa9b95"/>
      <stop offset=".68" stop-color="#ec9987"/>
      <stop offset=".72" stop-color="#e29382"/>
      <stop offset=".77" stop-color="#c98778"/>
      <stop offset=".79" stop-color="#af796c"/>
      <stop offset=".81" stop-color="#926a60"/>
      <stop offset=".83" stop-color="#7a5d56"/>
      <stop offset=".85" stop-color="#68534e"/>
      <stop offset=".88" stop-color="#5b4d49"/>
      <stop offset=".92" stop-color="#544945"/>
      <stop offset="1" stop-color="#524845"/>
    </linearGradient>
    <linearGradient id="linear-gradient-17" x1="17.94" y1="288.44" x2="546.04" y2="288.44" gradientUnits="userSpaceOnUse">
      <stop offset="0" stop-color="#dd8cce"/>
      <stop offset=".15" stop-color="#e78fbd"/>
      <stop offset=".27" stop-color="#f393ad"/>
      <stop offset=".28" stop-color="#f493a9"/>
      <stop offset=".32" stop-color="#fa95a0"/>
      <stop offset=".38" stop-color="#fc969d"/>
      <stop offset=".5" stop-color="#fa9a95"/>
      <stop offset=".68" stop-color="#f29d89"/>
      <stop offset=".72" stop-color="#e89784"/>
      <stop offset=".77" stop-color="#d08b7b"/>
      <stop offset=".79" stop-color="#b17a6d"/>
      <stop offset=".81" stop-color="#946b61"/>
      <stop offset=".83" stop-color="#7c5e57"/>
      <stop offset=".85" stop-color="#6a544f"/>
      <stop offset=".88" stop-color="#5d4e4a"/>
      <stop offset=".92" stop-color="#564a46"/>
      <stop offset="1" stop-color="#544946"/>
    </linearGradient>
    <linearGradient id="linear-gradient-18" x1="19" y1="290.09" x2="547.1" y2="290.09" gradientUnits="userSpaceOnUse">
      <stop offset="0" stop-color="#dd8cce"/>
      <stop offset=".15" stop-color="#e68fbe"/>
      <stop offset=".38" stop-color="#fc969e"/>
      <stop offset=".68" stop-color="#f8a08c"/>
      <stop offset=".72" stop-color="#ee9a87"/>
      <stop offset=".78" stop-color="#d38c7c"/>
      <stop offset=".87" stop-color="#a8766a"/>
      <stop offset=".97" stop-color="#6c5651"/>
      <stop offset="1" stop-color="#564b48"/>
    </linearGradient>
  </defs>
  <g>
    <path class="cls-8" d="m173,26.2c13.14-3,6.22-4.65,19.5-9.5,17.62-6.44,30-3,51.5-6.5,14.94-2.43,16.78-8.05,31-9,7.55-.51,13.47.66,25,3,25.42,5.17,38.13,7.75,53,16,8.16,4.53,14.4,9.33,25,10,5.27.33,9.18-.52,16-2,4.95-1.08,12.91-3.14,29-10,17.66-7.53,23.19-11.49,26-9,2.69,2.39,1.03,9.05-1,13-3.88,7.56-12.04,10.93-12,11,.05.07,7.63-7.28,17-8,10.43-.8,18.87,6.93,20,8,12.65,11.92,6.48,27.28,17,33,8.01,4.36,16.69-1.79,20,3,2.9,4.19-1.47,12.2-3,15-5.3,9.7-12.06,11.04-12,16,.06,5.09,7.22,6.99,13,12,11.4,9.87,11.67,26.82,12,48,.46,29.06-7.09,40.24,2,53,3.64,5.1,7.78,7.44,7,11-1.45,6.58-18.3,10.89-32,8-26.07-5.5-38.26-36.54-41-35-3.94,2.22,26.95,63.09,22,66-2.06,1.21-9.4-8.18-11-7-1.81,1.34,9.4,12.12,10,26,.87,20.18-21.33,32.3-16,43,1.98,3.97,4.97,2.18,10,8,9.61,11.13,6.33,26.54,6,28-1.21,5.29-4.4,13.01-8,13-2.13,0-2.65-2.71-7-6-3.19-2.41-8.98-5.54-11-4-2.79,2.13,3.59,11.72,5,20,4.18,24.62-33.45,50.49-40,55-39.05,26.86-61.36,14.27-83,41-9.93,12.27-17.89,30.55-22,29-1.32-.5-1.1-2.61-3-11-1.13-4.97-3.89-17.13-6-17-1.05.06-1.57,3.15-2,5-3.65,15.58-20.61,25.76-26,29-2.75,1.65-18.26,10.97-22,7-4.39-4.66,14.82-19.84,11-33-5.21-17.93-45.78-6.47-77-33-22.75-19.33-30.67-50.46-34-49-1.21.53.29,4.46,0,12-.52,13.58-6.4,26.38-9,26-3.24-.47,3.27-20.67-6-41-5.73-12.57-11.76-12.59-32-32-20.47-19.62-39.42-37.79-37-57,1.43-11.3,10.05-21.36,9-22-.85-.52-4.55,7.43-13,11-7.58,3.2-17.03,2.05-18-1-.92-2.9,6.63-4.94,12-12,9.63-12.67-.39-24.93,4-48,3.79-19.93,15.37-32.31,13-34-1.68-1.2-5.93,6.15-16,11-17.74,8.54-36.71,1.21-45-2-4.4-1.7-13.22-5.11-13-9,.2-3.43,7.29-4.6,12-7,13.42-6.83,14.97-27.44,24-91,.14-.95,3.59-23.98,15-40,4.54-6.38,8.68-9.31,12-11,7.9-4.02,16.03-3.42,16-4-.03-.58-8.26.66-17-2-9.95-3.03-19.17-10.69-18-14,1.08-3.07,10.56-.94,36-3,8.74-.71,15.63-1.61,16-4,.24-1.58-2.52-2.59-5-5-8.06-7.81-7.67-24.89-3-27,3.38-1.53,6.45,5.95,18,13,9.1,5.55,18.07,7.03,36,10,14.98,2.48,22.47,3.72,30,2Z"/>
    <path class="cls-4" d="m174.06,27.85c13.14-3,6.22-4.65,19.5-9.5,17.62-6.44,30-3,51.5-6.5,14.94-2.43,16.78-8.05,31-9,7.55-.51,13.47.66,25,3,25.42,5.17,38.13,7.75,53,16,8.16,4.53,14.4,9.33,25,10,5.27.33,9.18-.52,16-2,4.95-1.08,12.91-3.14,29-10,17.66-7.53,23.19-11.49,26-9,2.69,2.39,1.03,9.05-1,13-3.88,7.56-12.04,10.93-12,11,.05.07,7.63-7.28,17-8,10.43-.8,18.87,6.93,20,8,12.65,11.92,6.48,27.28,17,33,8.01,4.36,16.69-1.79,20,3,2.9,4.19-1.47,12.2-3,15-5.3,9.7-12.06,11.04-12,16,.06,5.09,7.22,6.99,13,12,11.4,9.87,11.67,26.82,12,48,.46,29.06-7.09,40.24,2,53,3.64,5.1,7.78,7.44,7,11-1.45,6.58-18.3,10.89-32,8-26.07-5.5-38.26-36.54-41-35-3.94,2.22,26.95,63.09,22,66-2.06,1.21-9.4-8.18-11-7-1.81,1.34,9.4,12.12,10,26,.87,20.18-21.33,32.3-16,43,1.98,3.97,4.97,2.18,10,8,9.61,11.13,6.33,26.54,6,28-1.21,5.29-4.4,13.01-8,13-2.13,0-2.65-2.71-7-6-3.19-2.41-8.98-5.54-11-4-2.79,2.13,3.59,11.72,5,20,4.18,24.62-33.45,50.49-40,55-39.05,26.86-61.36,14.27-83,41-9.93,12.27-17.89,30.55-22,29-1.32-.5-1.1-2.61-3-11-1.13-4.97-3.89-17.13-6-17-1.05.06-1.57,3.15-2,5-3.65,15.58-20.61,25.76-26,29-2.75,1.65-18.26,10.97-22,7-4.39-4.66,14.82-19.84,11-33-5.21-17.93-45.78-6.47-77-33-22.75-19.33-30.67-50.46-34-49-1.21.53.29,4.46,0,12-.52,13.58-6.4,26.38-9,26-3.24-.47,3.27-20.67-6-41-5.73-12.57-11.76-12.59-32-32-20.47-19.62-39.42-37.79-37-57,1.43-11.3,10.05-21.36,9-22-.85-.52-4.55,7.43-13,11-7.58,3.2-17.03,2.05-18-1-.92-2.9,6.63-4.94,12-12,9.63-12.67-.39-24.93,4-48,3.79-19.93,15.37-32.31,13-34-1.68-1.2-5.93,6.15-16,11-17.74,8.54-36.71,1.21-45-2-4.4-1.7-13.22-5.11-13-9,.2-3.43,7.29-4.6,12-7,13.42-6.83,14.97-27.44,24-91,.14-.95,3.59-23.98,15-40,4.54-6.38,8.68-9.31,12-11,7.9-4.02,16.03-3.42,16-4-.03-.58-8.26.66-17-2-9.95-3.03-19.17-10.69-18-14,1.08-3.07,10.56-.94,36-3,8.74-.71,15.63-1.61,16-4,.24-1.58-2.52-2.59-5-5-8.06-7.81-7.67-24.89-3-27,3.38-1.53,6.45,5.95,18,13,9.1,5.55,18.07,7.03,36,10,14.98,2.48,22.47,3.72,30,2Z"/>
    <path class="cls-12" d="m175.12,29.49c13.14-3,6.22-4.65,19.5-9.5,17.62-6.44,30-3,51.5-6.5,14.94-2.43,16.78-8.05,31-9,7.55-.51,13.47.66,25,3,25.42,5.17,38.13,7.75,53,16,8.16,4.53,14.4,9.33,25,10,5.27.33,9.18-.52,16-2,4.95-1.08,12.91-3.14,29-10,17.66-7.53,23.19-11.49,26-9,2.69,2.39,1.03,9.05-1,13-3.88,7.56-12.04,10.93-12,11,.05.07,7.63-7.28,17-8,10.43-.8,18.87,6.93,20,8,12.65,11.92,6.48,27.28,17,33,8.01,4.36,16.69-1.79,20,3,2.9,4.19-1.47,12.2-3,15-5.3,9.7-12.06,11.04-12,16,.06,5.09,7.22,6.99,13,12,11.4,9.87,11.67,26.82,12,48,.46,29.06-7.09,40.24,2,53,3.64,5.1,7.78,7.44,7,11-1.45,6.58-18.3,10.89-32,8-26.07-5.5-38.26-36.54-41-35-3.94,2.22,26.95,63.09,22,66-2.06,1.21-9.4-8.18-11-7-1.81,1.34,9.4,12.12,10,26,.87,20.18-21.33,32.3-16,43,1.98,3.97,4.97,2.18,10,8,9.61,11.13,6.33,26.54,6,28-1.21,5.29-4.4,13.01-8,13-2.13,0-2.65-2.71-7-6-3.19-2.41-8.98-5.54-11-4-2.79,2.13,3.59,11.72,5,20,4.18,24.62-33.45,50.49-40,55-39.05,26.86-61.36,14.27-83,41-9.93,12.27-17.89,30.55-22,29-1.32-.5-1.1-2.61-3-11-1.13-4.97-3.89-17.13-6-17-1.05.06-1.57,3.15-2,5-3.65,15.58-20.61,25.76-26,29-2.75,1.65-18.26,10.97-22,7-4.39-4.66,14.82-19.84,11-33-5.21-17.93-45.78-6.47-77-33-22.75-19.33-30.67-50.46-34-49-1.21.53.29,4.46,0,12-.52,13.58-6.4,26.38-9,26-3.24-.47,3.27-20.67-6-41-5.73-12.57-11.76-12.59-32-32-20.47-19.62-39.42-37.79-37-57,1.43-11.3,10.05-21.36,9-22-.85-.52-4.55,7.43-13,11-7.58,3.2-17.03,2.05-18-1-.92-2.9,6.63-4.94,12-12,9.63-12.67-.39-24.93,4-48,3.79-19.93,15.37-32.31,13-34-1.68-1.2-5.93,6.15-16,11-17.74,8.54-36.71,1.21-45-2-4.4-1.7-13.22-5.11-13-9,.2-3.43,7.29-4.6,12-7,13.42-6.83,14.97-27.44,24-91,.14-.95,3.59-23.98,15-40,4.54-6.38,8.68-9.31,12-11,7.9-4.02,16.03-3.42,16-4-.03-.58-8.26.66-17-2-9.95-3.03-19.17-10.69-18-14,1.08-3.07,10.56-.94,36-3,8.74-.71,15.63-1.61,16-4,.24-1.58-2.52-2.59-5-5-8.06-7.81-7.67-24.89-3-27,3.38-1.53,6.45,5.95,18,13,9.1,5.55,18.07,7.03,36,10,14.98,2.48,22.47,3.72,30,2Z"/>
    <path class="cls-6" d="m176.18,31.14c13.14-3,6.22-4.65,19.5-9.5,17.62-6.44,30-3,51.5-6.5,14.94-2.43,16.78-8.05,31-9,7.55-.51,13.47.66,25,3,25.42,5.17,38.13,7.75,53,16,8.16,4.53,14.4,9.33,25,10,5.27.33,9.18-.52,16-2,4.95-1.08,12.91-3.14,29-10,17.66-7.53,23.19-11.49,26-9,2.69,2.39,1.03,9.05-1,13-3.88,7.56-12.04,10.93-12,11,.05.07,7.63-7.28,17-8,10.43-.8,18.87,6.93,20,8,12.65,11.92,6.48,27.28,17,33,8.01,4.36,16.69-1.79,20,3,2.9,4.19-1.47,12.2-3,15-5.3,9.7-12.06,11.04-12,16,.06,5.09,7.22,6.99,13,12,11.4,9.87,11.67,26.82,12,48,.46,29.06-7.09,40.24,2,53,3.64,5.1,7.78,7.44,7,11-1.45,6.58-18.3,10.89-32,8-26.07-5.5-38.26-36.54-41-35-3.94,2.22,26.95,63.09,22,66-2.06,1.21-9.4-8.18-11-7-1.81,1.34,9.4,12.12,10,26,.87,20.18-21.33,32.3-16,43,1.98,3.97,4.97,2.18,10,8,9.61,11.13,6.33,26.54,6,28-1.21,5.29-4.4,13.01-8,13-2.13,0-2.65-2.71-7-6-3.19-2.41-8.98-5.54-11-4-2.79,2.13,3.59,11.72,5,20,4.18,24.62-33.45,50.49-40,55-39.05,26.86-61.36,14.27-83,41-9.93,12.27-17.89,30.55-22,29-1.32-.5-1.1-2.61-3-11-1.13-4.97-3.89-17.13-6-17-1.05.06-1.57,3.15-2,5-3.65,15.58-20.61,25.76-26,29-2.75,1.65-18.26,10.97-22,7-4.39-4.66,14.82-19.84,11-33-5.21-17.93-45.78-6.47-77-33-22.75-19.33-30.67-50.46-34-49-1.21.53.29,4.46,0,12-.52,13.58-6.4,26.38-9,26-3.24-.47,3.27-20.67-6-41-5.73-12.57-11.76-12.59-32-32-20.47-19.62-39.42-37.79-37-57,1.43-11.3,10.05-21.36,9-22-.85-.52-4.55,7.43-13,11-7.58,3.2-17.03,2.05-18-1-.92-2.9,6.63-4.94,12-12,9.63-12.67-.39-24.93,4-48,3.79-19.93,15.37-32.31,13-34-1.68-1.2-5.93,6.15-16,11-17.74,8.54-36.71,1.21-45-2-4.4-1.7-13.22-5.11-13-9,.2-3.43,7.29-4.6,12-7,13.42-6.83,14.97-27.44,24-91,.14-.95,3.59-23.98,15-40,4.54-6.38,8.68-9.31,12-11,7.9-4.02,16.03-3.42,16-4-.03-.58-8.26.66-17-2-9.95-3.03-19.17-10.69-18-14,1.08-3.07,10.56-.94,36-3,8.74-.71,15.63-1.61,16-4,.24-1.58-2.52-2.59-5-5-8.06-7.81-7.67-24.89-3-27,3.38-1.53,6.45,5.95,18,13,9.1,5.55,18.07,7.03,36,10,14.98,2.48,22.47,3.72,30,2Z"/>
    <path class="cls-5" d="m177.24,32.79c13.14-3,6.22-4.65,19.5-9.5,17.62-6.44,30-3,51.5-6.5,14.94-2.43,16.78-8.05,31-9,7.55-.51,13.47.66,25,3,25.42,5.17,38.13,7.75,53,16,8.16,4.53,14.4,9.33,25,10,5.27.33,9.18-.52,16-2,4.95-1.08,12.91-3.14,29-10,17.66-7.53,23.19-11.49,26-9,2.69,2.39,1.03,9.05-1,13-3.88,7.56-12.04,10.93-12,11,.05.07,7.63-7.28,17-8,10.43-.8,18.87,6.93,20,8,12.65,11.92,6.48,27.28,17,33,8.01,4.36,16.69-1.79,20,3,2.9,4.19-1.47,12.2-3,15-5.3,9.7-12.06,11.04-12,16,.06,5.09,7.22,6.99,13,12,11.4,9.87,11.67,26.82,12,48,.46,29.06-7.09,40.24,2,53,3.64,5.1,7.78,7.44,7,11-1.45,6.58-18.3,10.89-32,8-26.07-5.5-38.26-36.54-41-35-3.94,2.22,26.95,63.09,22,66-2.06,1.21-9.4-8.18-11-7-1.81,1.34,9.4,12.12,10,26,.87,20.18-21.33,32.3-16,43,1.98,3.97,4.97,2.18,10,8,9.61,11.13,6.33,26.54,6,28-1.21,5.29-4.4,13.01-8,13-2.13,0-2.65-2.71-7-6-3.19-2.41-8.98-5.54-11-4-2.79,2.13,3.59,11.72,5,20,4.18,24.62-33.45,50.49-40,55-39.05,26.86-61.36,14.27-83,41-9.93,12.27-17.89,30.55-22,29-1.32-.5-1.1-2.61-3-11-1.13-4.97-3.89-17.13-6-17-1.05.06-1.57,3.15-2,5-3.65,15.58-20.61,25.76-26,29-2.75,1.65-18.26,10.97-22,7-4.39-4.66,14.82-19.84,11-33-5.21-17.93-45.78-6.47-77-33-22.75-19.33-30.67-50.46-34-49-1.21.53.29,4.46,0,12-.52,13.58-6.4,26.38-9,26-3.24-.47,3.27-20.67-6-41-5.73-12.57-11.76-12.59-32-32-20.47-19.62-39.42-37.79-37-57,1.43-11.3,10.05-21.36,9-22-.85-.52-4.55,7.43-13,11-7.58,3.2-17.03,2.05-18-1-.92-2.9,6.63-4.94,12-12,9.63-12.67-.39-24.93,4-48,3.79-19.93,15.37-32.31,13-34-1.68-1.2-5.93,6.15-16,11-17.74,8.54-36.71,1.21-45-2-4.4-1.7-13.22-5.11-13-9,.2-3.43,7.29-4.6,12-7,13.42-6.83,14.97-27.44,24-91,.14-.95,3.59-23.98,15-40,4.54-6.38,8.68-9.31,12-11,7.9-4.02,16.03-3.42,16-4-.03-.58-8.26.66-17-2-9.95-3.03-19.17-10.69-18-14,1.08-3.07,10.56-.94,36-3,8.74-.71,15.63-1.61,16-4,.24-1.58-2.52-2.59-5-5-8.06-7.81-7.67-24.89-3-27,3.38-1.53,6.45,5.95,18,13,9.1,5.55,18.07,7.03,36,10,14.98,2.48,22.47,3.72,30,2Z"/>
    <path class="cls-10" d="m178.3,34.44c13.14-3,6.22-4.65,19.5-9.5,17.62-6.44,30-3,51.5-6.5,14.94-2.43,16.78-8.05,31-9,7.55-.51,13.47.66,25,3,25.42,5.17,38.13,7.75,53,16,8.16,4.53,14.4,9.33,25,10,5.27.33,9.18-.52,16-2,4.95-1.08,12.91-3.14,29-10,17.66-7.53,23.19-11.49,26-9,2.69,2.39,1.03,9.05-1,13-3.88,7.56-12.04,10.93-12,11,.05.07,7.63-7.28,17-8,10.43-.8,18.87,6.93,20,8,12.65,11.92,6.48,27.28,17,33,8.01,4.36,16.69-1.79,20,3,2.9,4.19-1.47,12.2-3,15-5.3,9.7-12.06,11.04-12,16,.06,5.09,7.22,6.99,13,12,11.4,9.87,11.67,26.82,12,48,.46,29.06-7.09,40.24,2,53,3.64,5.1,7.78,7.44,7,11-1.45,6.58-18.3,10.89-32,8-26.07-5.5-38.26-36.54-41-35-3.94,2.22,26.95,63.09,22,66-2.06,1.21-9.4-8.18-11-7-1.81,1.34,9.4,12.12,10,26,.87,20.18-21.33,32.3-16,43,1.98,3.97,4.97,2.18,10,8,9.61,11.13,6.33,26.54,6,28-1.21,5.29-4.4,13.01-8,13-2.13,0-2.65-2.71-7-6-3.19-2.41-8.98-5.54-11-4-2.79,2.13,3.59,11.72,5,20,4.18,24.62-33.45,50.49-40,55-39.05,26.86-61.36,14.27-83,41-9.93,12.27-17.89,30.55-22,29-1.32-.5-1.1-2.61-3-11-1.13-4.97-3.89-17.13-6-17-1.05.06-1.57,3.15-2,5-3.65,15.58-20.61,25.76-26,29-2.75,1.65-18.26,10.97-22,7-4.39-4.66,14.82-19.84,11-33-5.21-17.93-45.78-6.47-77-33-22.75-19.33-30.67-50.46-34-49-1.21.53.29,4.46,0,12-.52,13.58-6.4,26.38-9,26-3.24-.47,3.27-20.67-6-41-5.73-12.57-11.76-12.59-32-32-20.47-19.62-39.42-37.79-37-57,1.43-11.3,10.05-21.36,9-22-.85-.52-4.55,7.43-13,11-7.58,3.2-17.03,2.05-18-1-.92-2.9,6.63-4.94,12-12,9.63-12.67-.39-24.93,4-48,3.79-19.93,15.37-32.31,13-34-1.68-1.2-5.93,6.15-16,11-17.74,8.54-36.71,1.21-45-2-4.4-1.7-13.22-5.11-13-9,.2-3.43,7.29-4.6,12-7,13.42-6.83,14.97-27.44,24-91,.14-.95,3.59-23.98,15-40,4.54-6.38,8.68-9.31,12-11,7.9-4.02,16.03-3.42,16-4-.03-.58-8.26.66-17-2-9.95-3.03-19.17-10.69-18-14,1.08-3.07,10.56-.94,36-3,8.74-.71,15.63-1.61,16-4,.24-1.58-2.52-2.59-5-5-8.06-7.81-7.67-24.89-3-27,3.38-1.53,6.45,5.95,18,13,9.1,5.55,18.07,7.03,36,10,14.98,2.48,22.47,3.72,30,2Z"/>
    <path class="cls-17" d="m179.36,36.08c13.14-3,6.22-4.65,19.5-9.5,17.62-6.44,30-3,51.5-6.5,14.94-2.43,16.78-8.05,31-9,7.55-.51,13.47.66,25,3,25.42,5.17,38.13,7.75,53,16,8.16,4.53,14.4,9.33,25,10,5.27.33,9.18-.52,16-2,4.95-1.08,12.91-3.14,29-10,17.66-7.53,23.19-11.49,26-9,2.69,2.39,1.03,9.05-1,13-3.88,7.56-12.04,10.93-12,11,.05.07,7.63-7.28,17-8,10.43-.8,18.87,6.93,20,8,12.65,11.92,6.48,27.28,17,33,8.01,4.36,16.69-1.79,20,3,2.9,4.19-1.47,12.2-3,15-5.3,9.7-12.06,11.04-12,16,.06,5.09,7.22,6.99,13,12,11.4,9.87,11.67,26.82,12,48,.46,29.06-7.09,40.24,2,53,3.64,5.1,7.78,7.44,7,11-1.45,6.58-18.3,10.89-32,8-26.07-5.5-38.26-36.54-41-35-3.94,2.22,26.95,63.09,22,66-2.06,1.21-9.4-8.18-11-7-1.81,1.34,9.4,12.12,10,26,.87,20.18-21.33,32.3-16,43,1.98,3.97,4.97,2.18,10,8,9.61,11.13,6.33,26.54,6,28-1.21,5.29-4.4,13.01-8,13-2.13,0-2.65-2.71-7-6-3.19-2.41-8.98-5.54-11-4-2.79,2.13,3.59,11.72,5,20,4.18,24.62-33.45,50.49-40,55-39.05,26.86-61.36,14.27-83,41-9.93,12.27-17.89,30.55-22,29-1.32-.5-1.1-2.61-3-11-1.13-4.97-3.89-17.13-6-17-1.05.06-1.57,3.15-2,5-3.65,15.58-20.61,25.76-26,29-2.75,1.65-18.26,10.97-22,7-4.39-4.66,14.82-19.84,11-33-5.21-17.93-45.78-6.47-77-33-22.75-19.33-30.67-50.46-34-49-1.21.53.29,4.46,0,12-.52,13.58-6.4,26.38-9,26-3.24-.47,3.27-20.67-6-41-5.73-12.57-11.76-12.59-32-32-20.47-19.62-39.42-37.79-37-57,1.43-11.3,10.05-21.36,9-22-.85-.52-4.55,7.43-13,11-7.58,3.2-17.03,2.05-18-1-.92-2.9,6.63-4.94,12-12,9.63-12.67-.39-24.93,4-48,3.79-19.93,15.37-32.31,13-34-1.68-1.2-5.93,6.15-16,11-17.74,8.54-36.71,1.21-45-2-4.4-1.7-13.22-5.11-13-9,.2-3.43,7.29-4.6,12-7,13.42-6.83,14.97-27.44,24-91,.14-.95,3.59-23.98,15-40,4.54-6.38,8.68-9.31,12-11,7.9-4.02,16.03-3.42,16-4-.03-.58-8.26.66-17-2-9.95-3.03-19.17-10.69-18-14,1.08-3.07,10.56-.94,36-3,8.74-.71,15.63-1.61,16-4,.24-1.58-2.52-2.59-5-5-8.06-7.81-7.67-24.89-3-27,3.38-1.53,6.45,5.95,18,13,9.1,5.55,18.07,7.03,36,10,14.98,2.48,22.47,3.72,30,2Z"/>
    <path class="cls-7" d="m180.42,37.73c13.14-3,6.22-4.65,19.5-9.5,17.62-6.44,30-3,51.5-6.5,14.94-2.43,16.78-8.05,31-9,7.55-.51,13.47.66,25,3,25.42,5.17,38.13,7.75,53,16,8.16,4.53,14.4,9.33,25,10,5.27.33,9.18-.52,16-2,4.95-1.08,12.91-3.14,29-10,17.66-7.53,23.19-11.49,26-9,2.69,2.39,1.03,9.05-1,13-3.88,7.56-12.04,10.93-12,11,.05.07,7.63-7.28,17-8,10.43-.8,18.87,6.93,20,8,12.65,11.92,6.48,27.28,17,33,8.01,4.36,16.69-1.79,20,3,2.9,4.19-1.47,12.2-3,15-5.3,9.7-12.06,11.04-12,16,.06,5.09,7.22,6.99,13,12,11.4,9.87,11.67,26.82,12,48,.46,29.06-7.09,40.24,2,53,3.64,5.1,7.78,7.44,7,11-1.45,6.58-18.3,10.89-32,8-26.07-5.5-38.26-36.54-41-35-3.94,2.22,26.95,63.09,22,66-2.06,1.21-9.4-8.18-11-7-1.81,1.34,9.4,12.12,10,26,.87,20.18-21.33,32.3-16,43,1.98,3.97,4.97,2.18,10,8,9.61,11.13,6.33,26.54,6,28-1.21,5.29-4.4,13.01-8,13-2.13,0-2.65-2.71-7-6-3.19-2.41-8.98-5.54-11-4-2.79,2.13,3.59,11.72,5,20,4.18,24.62-33.45,50.49-40,55-39.05,26.86-61.36,14.27-83,41-9.93,12.27-17.89,30.55-22,29-1.32-.5-1.1-2.61-3-11-1.13-4.97-3.89-17.13-6-17-1.05.06-1.57,3.15-2,5-3.65,15.58-20.61,25.76-26,29-2.75,1.65-18.26,10.97-22,7-4.39-4.66,14.82-19.84,11-33-5.21-17.93-45.78-6.47-77-33-22.75-19.33-30.67-50.46-34-49-1.21.53.29,4.46,0,12-.52,13.58-6.4,26.38-9,26-3.24-.47,3.27-20.67-6-41-5.73-12.57-11.76-12.59-32-32-20.47-19.62-39.42-37.79-37-57,1.43-11.3,10.05-21.36,9-22-.85-.52-4.55,7.43-13,11-7.58,3.2-17.03,2.05-18-1-.92-2.9,6.63-4.94,12-12,9.63-12.67-.39-24.93,4-48,3.79-19.93,15.37-32.31,13-34-1.68-1.2-5.93,6.15-16,11-17.74,8.54-36.71,1.21-45-2-4.4-1.7-13.22-5.11-13-9,.2-3.43,7.29-4.6,12-7,13.42-6.83,14.97-27.44,24-91,.14-.95,3.59-23.98,15-40,4.54-6.38,8.68-9.31,12-11,7.9-4.02,16.03-3.42,16-4-.03-.58-8.26.66-17-2-9.95-3.03-19.17-10.69-18-14,1.08-3.07,10.56-.94,36-3,8.74-.71,15.63-1.61,16-4,.24-1.58-2.52-2.59-5-5-8.06-7.81-7.67-24.89-3-27,3.38-1.53,6.45,5.95,18,13,9.1,5.55,18.07,7.03,36,10,14.98,2.48,22.47,3.72,30,2Z"/>
    <path class="cls-11" d="m181.47,39.38c13.14-3,6.22-4.65,19.5-9.5,17.62-6.44,30-3,51.5-6.5,14.94-2.43,16.78-8.05,31-9,7.55-.51,13.47.66,25,3,25.42,5.17,38.13,7.75,53,16,8.16,4.53,14.4,9.33,25,10,5.27.33,9.18-.52,16-2,4.95-1.08,12.91-3.14,29-10,17.66-7.53,23.19-11.49,26-9,2.69,2.39,1.03,9.05-1,13-3.88,7.56-12.04,10.93-12,11,.05.07,7.63-7.28,17-8,10.43-.8,18.87,6.93,20,8,12.65,11.92,6.48,27.28,17,33,8.01,4.36,16.69-1.79,20,3,2.9,4.19-1.47,12.2-3,15-5.3,9.7-12.06,11.04-12,16,.06,5.09,7.22,6.99,13,12,11.4,9.87,11.67,26.82,12,48,.46,29.06-7.09,40.24,2,53,3.64,5.1,7.78,7.44,7,11-1.45,6.58-18.3,10.89-32,8-26.07-5.5-38.26-36.54-41-35-3.94,2.22,26.95,63.09,22,66-2.06,1.21-9.4-8.18-11-7-1.81,1.34,9.4,12.12,10,26,.87,20.18-21.33,32.3-16,43,1.98,3.97,4.97,2.18,10,8,9.61,11.13,6.33,26.54,6,28-1.21,5.29-4.4,13.01-8,13-2.13,0-2.65-2.71-7-6-3.19-2.41-8.98-5.54-11-4-2.79,2.13,3.59,11.72,5,20,4.18,24.62-33.45,50.49-40,55-39.05,26.86-61.36,14.27-83,41-9.93,12.27-17.89,30.55-22,29-1.32-.5-1.1-2.61-3-11-1.13-4.97-3.89-17.13-6-17-1.05.06-1.57,3.15-2,5-3.65,15.58-20.61,25.76-26,29-2.75,1.65-18.26,10.97-22,7-4.39-4.66,14.82-19.84,11-33-5.21-17.93-45.78-6.47-77-33-22.75-19.33-30.67-50.46-34-49-1.21.53.29,4.46,0,12-.52,13.58-6.4,26.38-9,26-3.24-.47,3.27-20.67-6-41-5.73-12.57-11.76-12.59-32-32-20.47-19.62-39.42-37.79-37-57,1.43-11.3,10.05-21.36,9-22-.85-.52-4.55,7.43-13,11-7.58,3.2-17.03,2.05-18-1-.92-2.9,6.63-4.94,12-12,9.63-12.67-.39-24.93,4-48,3.79-19.93,15.37-32.31,13-34-1.68-1.2-5.93,6.15-16,11-17.74,8.54-36.71,1.21-45-2-4.4-1.7-13.22-5.11-13-9,.2-3.43,7.29-4.6,12-7,13.42-6.83,14.97-27.44,24-91,.14-.95,3.59-23.98,15-40,4.54-6.38,8.68-9.31,12-11,7.9-4.02,16.03-3.42,16-4-.03-.58-8.26.66-17-2-9.95-3.03-19.17-10.69-18-14,1.08-3.07,10.56-.94,36-3,8.74-.71,15.63-1.61,16-4,.24-1.58-2.52-2.59-5-5-8.06-7.81-7.67-24.89-3-27,3.38-1.53,6.45,5.95,18,13,9.1,5.55,18.07,7.03,36,10,14.98,2.48,22.47,3.72,30,2Z"/>
    <path class="cls-19" d="m182.53,41.02c13.14-3,6.22-4.65,19.5-9.5,17.62-6.44,30-3,51.5-6.5,14.94-2.43,16.78-8.05,31-9,7.55-.51,13.47.66,25,3,25.42,5.17,38.13,7.75,53,16,8.16,4.53,14.4,9.33,25,10,5.27.33,9.18-.52,16-2,4.95-1.08,12.91-3.14,29-10,17.66-7.53,23.19-11.49,26-9,2.69,2.39,1.03,9.05-1,13-3.88,7.56-12.04,10.93-12,11,.05.07,7.63-7.28,17-8,10.43-.8,18.87,6.93,20,8,12.65,11.92,6.48,27.28,17,33,8.01,4.36,16.69-1.79,20,3,2.9,4.19-1.47,12.2-3,15-5.3,9.7-12.06,11.04-12,16,.06,5.09,7.22,6.99,13,12,11.4,9.87,11.67,26.82,12,48,.46,29.06-7.09,40.24,2,53,3.64,5.1,7.78,7.44,7,11-1.45,6.58-18.3,10.89-32,8-26.07-5.5-38.26-36.54-41-35-3.94,2.22,26.95,63.09,22,66-2.06,1.21-9.4-8.18-11-7-1.81,1.34,9.4,12.12,10,26,.87,20.18-21.33,32.3-16,43,1.98,3.97,4.97,2.18,10,8,9.61,11.13,6.33,26.54,6,28-1.21,5.29-4.4,13.01-8,13-2.13,0-2.65-2.71-7-6-3.19-2.41-8.98-5.54-11-4-2.79,2.13,3.59,11.72,5,20,4.18,24.62-33.45,50.49-40,55-39.05,26.86-61.36,14.27-83,41-9.93,12.27-17.89,30.55-22,29-1.32-.5-1.1-2.61-3-11-1.13-4.97-3.89-17.13-6-17-1.05.06-1.57,3.15-2,5-3.65,15.58-20.61,25.76-26,29-2.75,1.65-18.26,10.97-22,7-4.39-4.66,14.82-19.84,11-33-5.21-17.93-45.78-6.47-77-33-22.75-19.33-30.67-50.46-34-49-1.21.53.29,4.46,0,12-.52,13.58-6.4,26.38-9,26-3.24-.47,3.27-20.67-6-41-5.73-12.57-11.76-12.59-32-32-20.47-19.62-39.42-37.79-37-57,1.43-11.3,10.05-21.36,9-22-.85-.52-4.55,7.43-13,11-7.58,3.2-17.03,2.05-18-1-.92-2.9,6.63-4.94,12-12,9.63-12.67-.39-24.93,4-48,3.79-19.93,15.37-32.31,13-34-1.68-1.2-5.93,6.15-16,11-17.74,8.54-36.71,1.21-45-2-4.4-1.7-13.22-5.11-13-9,.2-3.43,7.29-4.6,12-7,13.42-6.83,14.97-27.44,24-91,.14-.95,3.59-23.98,15-40,4.54-6.38,8.68-9.31,12-11,7.9-4.02,16.03-3.42,16-4-.03-.58-8.26.66-17-2-9.95-3.03-19.17-10.69-18-14,1.08-3.07,10.56-.94,36-3,8.74-.71,15.63-1.61,16-4,.24-1.58-2.52-2.59-5-5-8.06-7.81-7.67-24.89-3-27,3.38-1.53,6.45,5.95,18,13,9.1,5.55,18.07,7.03,36,10,14.98,2.48,22.47,3.72,30,2Z"/>
    <path class="cls-13" d="m183.59,42.67c13.14-3,6.22-4.65,19.5-9.5,17.62-6.44,30-3,51.5-6.5,14.94-2.43,16.78-8.05,31-9,7.55-.51,13.47.66,25,3,25.42,5.17,38.13,7.75,53,16,8.16,4.53,14.4,9.33,25,10,5.27.33,9.18-.52,16-2,4.95-1.08,12.91-3.14,29-10,17.66-7.53,23.19-11.49,26-9,2.69,2.39,1.03,9.05-1,13-3.88,7.56-12.04,10.93-12,11,.05.07,7.63-7.28,17-8,10.43-.8,18.87,6.93,20,8,12.65,11.92,6.48,27.28,17,33,8.01,4.36,16.69-1.79,20,3,2.9,4.19-1.47,12.2-3,15-5.3,9.7-12.06,11.04-12,16,.06,5.09,7.22,6.99,13,12,11.4,9.87,11.67,26.82,12,48,.46,29.06-7.09,40.24,2,53,3.64,5.1,7.78,7.44,7,11-1.45,6.58-18.3,10.89-32,8-26.07-5.5-38.26-36.54-41-35-3.94,2.22,26.95,63.09,22,66-2.06,1.21-9.4-8.18-11-7-1.81,1.34,9.4,12.12,10,26,.87,20.18-21.33,32.3-16,43,1.98,3.97,4.97,2.18,10,8,9.61,11.13,6.33,26.54,6,28-1.21,5.29-4.4,13.01-8,13-2.13,0-2.65-2.71-7-6-3.19-2.41-8.98-5.54-11-4-2.79,2.13,3.59,11.72,5,20,4.18,24.62-33.45,50.49-40,55-39.05,26.86-61.36,14.27-83,41-9.93,12.27-17.89,30.55-22,29-1.32-.5-1.1-2.61-3-11-1.13-4.97-3.89-17.13-6-17-1.05.06-1.57,3.15-2,5-3.65,15.58-20.61,25.76-26,29-2.75,1.65-18.26,10.97-22,7-4.39-4.66,14.82-19.84,11-33-5.21-17.93-45.78-6.47-77-33-22.75-19.33-30.67-50.46-34-49-1.21.53.29,4.46,0,12-.52,13.58-6.4,26.38-9,26-3.24-.47,3.27-20.67-6-41-5.73-12.57-11.76-12.59-32-32-20.47-19.62-39.42-37.79-37-57,1.43-11.3,10.05-21.36,9-22-.85-.52-4.55,7.43-13,11-7.58,3.2-17.03,2.05-18-1-.92-2.9,6.63-4.94,12-12,9.63-12.67-.39-24.93,4-48,3.79-19.93,15.37-32.31,13-34-1.68-1.2-5.93,6.15-16,11-17.74,8.54-36.71,1.21-45-2-4.4-1.7-13.22-5.11-13-9,.2-3.43,7.29-4.6,12-7,13.42-6.83,14.97-27.44,24-91,.14-.95,3.59-23.98,15-40,4.54-6.38,8.68-9.31,12-11,7.9-4.02,16.03-3.42,16-4-.03-.58-8.26.66-17-2-9.95-3.03-19.17-10.69-18-14,1.08-3.07,10.56-.94,36-3,8.74-.71,15.63-1.61,16-4,.24-1.58-2.52-2.59-5-5-8.06-7.81-7.67-24.89-3-27,3.38-1.53,6.45,5.95,18,13,9.1,5.55,18.07,7.03,36,10,14.98,2.48,22.47,3.72,30,2Z"/>
    <path class="cls-2" d="m184.65,44.32c13.14-3,6.22-4.65,19.5-9.5,17.62-6.44,30-3,51.5-6.5,14.94-2.43,16.78-8.05,31-9,7.55-.51,13.47.66,25,3,25.42,5.17,38.13,7.75,53,16,8.16,4.53,14.4,9.33,25,10,5.27.33,9.18-.52,16-2,4.95-1.08,12.91-3.14,29-10,17.66-7.53,23.19-11.49,26-9,2.69,2.39,1.03,9.05-1,13-3.88,7.56-12.04,10.93-12,11,.05.07,7.63-7.28,17-8,10.43-.8,18.87,6.93,20,8,12.65,11.92,6.48,27.28,17,33,8.01,4.36,16.69-1.79,20,3,2.9,4.19-1.47,12.2-3,15-5.3,9.7-12.06,11.04-12,16,.06,5.09,7.22,6.99,13,12,11.4,9.87,11.67,26.82,12,48,.46,29.06-7.09,40.24,2,53,3.64,5.1,7.78,7.44,7,11-1.45,6.58-18.3,10.89-32,8-26.07-5.5-38.26-36.54-41-35-3.94,2.22,26.95,63.09,22,66-2.06,1.21-9.4-8.18-11-7-1.81,1.34,9.4,12.12,10,26,.87,20.18-21.33,32.3-16,43,1.98,3.97,4.97,2.18,10,8,9.61,11.13,6.33,26.54,6,28-1.21,5.29-4.4,13.01-8,13-2.13,0-2.65-2.71-7-6-3.19-2.41-8.98-5.54-11-4-2.79,2.13,3.59,11.72,5,20,4.18,24.62-33.45,50.49-40,55-39.05,26.86-61.36,14.27-83,41-9.93,12.27-17.89,30.55-22,29-1.32-.5-1.1-2.61-3-11-1.13-4.97-3.89-17.13-6-17-1.05.06-1.57,3.15-2,5-3.65,15.58-20.61,25.76-26,29-2.75,1.65-18.26,10.97-22,7-4.39-4.66,14.82-19.84,11-33-5.21-17.93-45.78-6.47-77-33-22.75-19.33-30.67-50.46-34-49-1.21.53.29,4.46,0,12-.52,13.58-6.4,26.38-9,26-3.24-.47,3.27-20.67-6-41-5.73-12.57-11.76-12.59-32-32-20.47-19.62-39.42-37.79-37-57,1.43-11.3,10.05-21.36,9-22-.85-.52-4.55,7.43-13,11-7.58,3.2-17.03,2.05-18-1-.92-2.9,6.63-4.94,12-12,9.63-12.67-.39-24.93,4-48,3.79-19.93,15.37-32.31,13-34-1.68-1.2-5.93,6.15-16,11-17.74,8.54-36.71,1.21-45-2-4.4-1.7-13.22-5.11-13-9,.2-3.43,7.29-4.6,12-7,13.42-6.83,14.97-27.44,24-91,.14-.95,3.59-23.98,15-40,4.54-6.38,8.68-9.31,12-11,7.9-4.02,16.03-3.42,16-4-.03-.58-8.26.66-17-2-9.95-3.03-19.17-10.69-18-14,1.08-3.07,10.56-.94,36-3,8.74-.71,15.63-1.61,16-4,.24-1.58-2.52-2.59-5-5-8.06-7.81-7.67-24.89-3-27,3.38-1.53,6.45,5.95,18,13,9.1,5.55,18.07,7.03,36,10,14.98,2.48,22.47,3.72,30,2Z"/>
    <path class="cls-1" d="m185.71,45.97c13.14-3,6.22-4.65,19.5-9.5,17.62-6.44,30-3,51.5-6.5,14.94-2.43,16.78-8.05,31-9,7.55-.51,13.47.66,25,3,25.42,5.17,38.13,7.75,53,16,8.16,4.53,14.4,9.33,25,10,5.27.33,9.18-.52,16-2,4.95-1.08,12.91-3.14,29-10,17.66-7.53,23.19-11.49,26-9,2.69,2.39,1.03,9.05-1,13-3.88,7.56-12.04,10.93-12,11,.05.07,7.63-7.28,17-8,10.43-.8,18.87,6.93,20,8,12.65,11.92,6.48,27.28,17,33,8.01,4.36,16.69-1.79,20,3,2.9,4.19-1.47,12.2-3,15-5.3,9.7-12.06,11.04-12,16,.06,5.09,7.22,6.99,13,12,11.4,9.87,11.67,26.82,12,48,.46,29.06-7.09,40.24,2,53,3.64,5.1,7.78,7.44,7,11-1.45,6.58-18.3,10.89-32,8-26.07-5.5-38.26-36.54-41-35-3.94,2.22,26.95,63.09,22,66-2.06,1.21-9.4-8.18-11-7-1.81,1.34,9.4,12.12,10,26,.87,20.18-21.33,32.3-16,43,1.98,3.97,4.97,2.18,10,8,9.61,11.13,6.33,26.54,6,28-1.21,5.29-4.4,13.01-8,13-2.13,0-2.65-2.71-7-6-3.19-2.41-8.98-5.54-11-4-2.79,2.13,3.59,11.72,5,20,4.18,24.62-33.45,50.49-40,55-39.05,26.86-61.36,14.27-83,41-9.93,12.27-17.89,30.55-22,29-1.32-.5-1.1-2.61-3-11-1.13-4.97-3.89-17.13-6-17-1.05.06-1.57,3.15-2,5-3.65,15.58-20.61,25.76-26,29-2.75,1.65-18.26,10.97-22,7-4.39-4.66,14.82-19.84,11-33-5.21-17.93-45.78-6.47-77-33-22.75-19.33-30.67-50.46-34-49-1.21.53.29,4.46,0,12-.52,13.58-6.4,26.38-9,26-3.24-.47,3.27-20.67-6-41-5.73-12.57-11.76-12.59-32-32-20.47-19.62-39.42-37.79-37-57,1.43-11.3,10.05-21.36,9-22-.85-.52-4.55,7.43-13,11-7.58,3.2-17.03,2.05-18-1-.92-2.9,6.63-4.94,12-12,9.63-12.67-.39-24.93,4-48,3.79-19.93,15.37-32.31,13-34-1.68-1.2-5.93,6.15-16,11-17.74,8.54-36.71,1.21-45-2-4.4-1.7-13.22-5.11-13-9,.2-3.43,7.29-4.6,12-7,13.42-6.83,14.97-27.44,24-91,.14-.95,3.59-23.98,15-40,4.54-6.38,8.68-9.31,12-11,7.9-4.02,16.03-3.42,16-4-.03-.58-8.26.66-17-2-9.95-3.03-19.17-10.69-18-14,1.08-3.07,10.56-.94,36-3,8.74-.71,15.63-1.61,16-4,.24-1.58-2.52-2.59-5-5-8.06-7.81-7.67-24.89-3-27,3.38-1.53,6.45,5.95,18,13,9.1,5.55,18.07,7.03,36,10,14.98,2.48,22.47,3.72,30,2Z"/>
    <path class="cls-14" d="m186.77,47.61c13.14-3,6.22-4.65,19.5-9.5,17.62-6.44,30-3,51.5-6.5,14.94-2.43,16.78-8.05,31-9,7.55-.51,13.47.66,25,3,25.42,5.17,38.13,7.75,53,16,8.16,4.53,14.4,9.33,25,10,5.27.33,9.18-.52,16-2,4.95-1.08,12.91-3.14,29-10,17.66-7.53,23.19-11.49,26-9,2.69,2.39,1.03,9.05-1,13-3.88,7.56-12.04,10.93-12,11,.05.07,7.63-7.28,17-8,10.43-.8,18.87,6.93,20,8,12.65,11.92,6.48,27.28,17,33,8.01,4.36,16.69-1.79,20,3,2.9,4.19-1.47,12.2-3,15-5.3,9.7-12.06,11.04-12,16,.06,5.09,7.22,6.99,13,12,11.4,9.87,11.67,26.82,12,48,.46,29.06-7.09,40.24,2,53,3.64,5.1,7.78,7.44,7,11-1.45,6.58-18.3,10.89-32,8-26.07-5.5-38.26-36.54-41-35-3.94,2.22,26.95,63.09,22,66-2.06,1.21-9.4-8.18-11-7-1.81,1.34,9.4,12.12,10,26,.87,20.18-21.33,32.3-16,43,1.98,3.97,4.97,2.18,10,8,9.61,11.13,6.33,26.54,6,28-1.21,5.29-4.4,13.01-8,13-2.13,0-2.65-2.71-7-6-3.19-2.41-8.98-5.54-11-4-2.79,2.13,3.59,11.72,5,20,4.18,24.62-33.45,50.49-40,55-39.05,26.86-61.36,14.27-83,41-9.93,12.27-17.89,30.55-22,29-1.32-.5-1.1-2.61-3-11-1.13-4.97-3.89-17.13-6-17-1.05.06-1.57,3.15-2,5-3.65,15.58-20.61,25.76-26,29-2.75,1.65-18.26,10.97-22,7-4.39-4.66,14.82-19.84,11-33-5.21-17.93-45.78-6.47-77-33-22.75-19.33-30.67-50.46-34-49-1.21.53.29,4.46,0,12-.52,13.58-6.4,26.38-9,26-3.24-.47,3.27-20.67-6-41-5.73-12.57-11.76-12.59-32-32-20.47-19.62-39.42-37.79-37-57,1.43-11.3,10.05-21.36,9-22-.85-.52-4.55,7.43-13,11-7.58,3.2-17.03,2.05-18-1-.92-2.9,6.63-4.94,12-12,9.63-12.67-.39-24.93,4-48,3.79-19.93,15.37-32.31,13-34-1.68-1.2-5.93,6.15-16,11-17.74,8.54-36.71,1.21-45-2-4.4-1.7-13.22-5.11-13-9,.2-3.43,7.29-4.6,12-7,13.42-6.83,14.97-27.44,24-91,.14-.95,3.59-23.98,15-40,4.54-6.38,8.68-9.31,12-11,7.9-4.02,16.03-3.42,16-4-.03-.58-8.26.66-17-2-9.95-3.03-19.17-10.69-18-14,1.08-3.07,10.56-.94,36-3,8.74-.71,15.63-1.61,16-4,.24-1.58-2.52-2.59-5-5-8.06-7.81-7.67-24.89-3-27,3.38-1.53,6.45,5.95,18,13,9.1,5.55,18.07,7.03,36,10,14.98,2.48,22.47,3.72,30,2Z"/>
    <path class="cls-16" d="m187.83,49.26c13.14-3,6.22-4.65,19.5-9.5,17.62-6.44,30-3,51.5-6.5,14.94-2.43,16.78-8.05,31-9,7.55-.51,13.47.66,25,3,25.42,5.17,38.13,7.75,53,16,8.16,4.53,14.4,9.33,25,10,5.27.33,9.18-.52,16-2,4.95-1.08,12.91-3.14,29-10,17.66-7.53,23.19-11.49,26-9,2.69,2.39,1.03,9.05-1,13-3.88,7.56-12.04,10.93-12,11,.05.07,7.63-7.28,17-8,10.43-.8,18.87,6.93,20,8,12.65,11.92,6.48,27.28,17,33,8.01,4.36,16.69-1.79,20,3,2.9,4.19-1.47,12.2-3,15-5.3,9.7-12.06,11.04-12,16,.06,5.09,7.22,6.99,13,12,11.4,9.87,11.67,26.82,12,48,.46,29.06-7.09,40.24,2,53,3.64,5.1,7.78,7.44,7,11-1.45,6.58-18.3,10.89-32,8-26.07-5.5-38.26-36.54-41-35-3.94,2.22,26.95,63.09,22,66-2.06,1.21-9.4-8.18-11-7-1.81,1.34,9.4,12.12,10,26,.87,20.18-21.33,32.3-16,43,1.98,3.97,4.97,2.18,10,8,9.61,11.13,6.33,26.54,6,28-1.21,5.29-4.4,13.01-8,13-2.13,0-2.65-2.71-7-6-3.19-2.41-8.98-5.54-11-4-2.79,2.13,3.59,11.72,5,20,4.18,24.62-33.45,50.49-40,55-39.05,26.86-61.36,14.27-83,41-9.93,12.27-17.89,30.55-22,29-1.32-.5-1.1-2.61-3-11-1.13-4.97-3.89-17.13-6-17-1.05.06-1.57,3.15-2,5-3.65,15.58-20.61,25.76-26,29-2.75,1.65-18.26,10.97-22,7-4.39-4.66,14.82-19.84,11-33-5.21-17.93-45.78-6.47-77-33-22.75-19.33-30.67-50.46-34-49-1.21.53.29,4.46,0,12-.52,13.58-6.4,26.38-9,26-3.24-.47,3.27-20.67-6-41-5.73-12.57-11.76-12.59-32-32-20.47-19.62-39.42-37.79-37-57,1.43-11.3,10.05-21.36,9-22-.85-.52-4.55,7.43-13,11-7.58,3.2-17.03,2.05-18-1-.92-2.9,6.63-4.94,12-12,9.63-12.67-.39-24.93,4-48,3.79-19.93,15.37-32.31,13-34-1.68-1.2-5.93,6.15-16,11-17.74,8.54-36.71,1.21-45-2-4.4-1.7-13.22-5.11-13-9,.2-3.43,7.29-4.6,12-7,13.42-6.83,14.97-27.44,24-91,.14-.95,3.59-23.98,15-40,4.54-6.38,8.68-9.31,12-11,7.9-4.02,16.03-3.42,16-4-.03-.58-8.26.66-17-2-9.95-3.03-19.17-10.69-18-14,1.08-3.07,10.56-.94,36-3,8.74-.71,15.63-1.61,16-4,.24-1.58-2.52-2.59-5-5-8.06-7.81-7.67-24.89-3-27,3.38-1.53,6.45,5.95,18,13,9.1,5.55,18.07,7.03,36,10,14.98,2.48,22.47,3.72,30,2Z"/>
    <path class="cls-9" d="m188.89,50.91c13.14-3,6.22-4.65,19.5-9.5,17.62-6.44,30-3,51.5-6.5,14.94-2.43,16.78-8.05,31-9,7.55-.51,13.47.66,25,3,25.42,5.17,38.13,7.75,53,16,8.16,4.53,14.4,9.33,25,10,5.27.33,9.18-.52,16-2,4.95-1.08,12.91-3.14,29-10,17.66-7.53,23.19-11.49,26-9,2.69,2.39,1.03,9.05-1,13-3.88,7.56-12.04,10.93-12,11,.05.07,7.63-7.28,17-8,10.43-.8,18.87,6.93,20,8,12.65,11.92,6.48,27.28,17,33,8.01,4.36,16.69-1.79,20,3,2.9,4.19-1.47,12.2-3,15-5.3,9.7-12.06,11.04-12,16,.06,5.09,7.22,6.99,13,12,11.4,9.87,11.67,26.82,12,48,.46,29.06-7.09,40.24,2,53,3.64,5.1,7.78,7.44,7,11-1.45,6.58-18.3,10.89-32,8-26.07-5.5-38.26-36.54-41-35-3.94,2.22,26.95,63.09,22,66-2.06,1.21-9.4-8.18-11-7-1.81,1.34,9.4,12.12,10,26,.87,20.18-21.33,32.3-16,43,1.98,3.97,4.97,2.18,10,8,9.61,11.13,6.33,26.54,6,28-1.21,5.29-4.4,13.01-8,13-2.13,0-2.65-2.71-7-6-3.19-2.41-8.98-5.54-11-4-2.79,2.13,3.59,11.72,5,20,4.18,24.62-33.45,50.49-40,55-39.05,26.86-61.36,14.27-83,41-9.93,12.27-17.89,30.55-22,29-1.32-.5-1.1-2.61-3-11-1.13-4.97-3.89-17.13-6-17-1.05.06-1.57,3.15-2,5-3.65,15.58-20.61,25.76-26,29-2.75,1.65-18.26,10.97-22,7-4.39-4.66,14.82-19.84,11-33-5.21-17.93-45.78-6.47-77-33-22.75-19.33-30.67-50.46-34-49-1.21.53.29,4.46,0,12-.52,13.58-6.4,26.38-9,26-3.24-.47,3.27-20.67-6-41-5.73-12.57-11.76-12.59-32-32-20.47-19.62-39.42-37.79-37-57,1.43-11.3,10.05-21.36,9-22-.85-.52-4.55,7.43-13,11-7.58,3.2-17.03,2.05-18-1-.92-2.9,6.63-4.94,12-12,9.63-12.67-.39-24.93,4-48,3.79-19.93,15.37-32.31,13-34-1.68-1.2-5.93,6.15-16,11-17.74,8.54-36.71,1.21-45-2-4.4-1.7-13.22-5.11-13-9,.2-3.43,7.29-4.6,12-7,13.42-6.83,14.97-27.44,24-91,.14-.95,3.59-23.98,15-40,4.54-6.38,8.68-9.31,12-11,7.9-4.02,16.03-3.42,16-4-.03-.58-8.26.66-17-2-9.95-3.03-19.17-10.69-18-14,1.08-3.07,10.56-.94,36-3,8.74-.71,15.63-1.61,16-4,.24-1.58-2.52-2.59-5-5-8.06-7.81-7.67-24.89-3-27,3.38-1.53,6.45,5.95,18,13,9.1,5.55,18.07,7.03,36,10,14.98,2.48,22.47,3.72,30,2Z"/>
    <path class="cls-15" d="m189.95,52.55c13.14-3,6.22-4.65,19.5-9.5,17.62-6.44,30-3,51.5-6.5,14.94-2.43,16.78-8.05,31-9,7.55-.51,13.47.66,25,3,25.42,5.17,38.13,7.75,53,16,8.16,4.53,14.4,9.33,25,10,5.27.33,9.18-.52,16-2,4.95-1.08,12.91-3.14,29-10,17.66-7.53,23.19-11.49,26-9,2.69,2.39,1.03,9.05-1,13-3.88,7.56-12.04,10.93-12,11,.05.07,7.63-7.28,17-8,10.43-.8,18.87,6.93,20,8,12.65,11.92,6.48,27.28,17,33,8.01,4.36,16.69-1.79,20,3,2.9,4.19-1.47,12.2-3,15-5.3,9.7-12.06,11.04-12,16,.06,5.09,7.22,6.99,13,12,11.4,9.87,11.67,26.82,12,48,.46,29.06-7.09,40.24,2,53,3.64,5.1,7.78,7.44,7,11-1.45,6.58-18.3,10.89-32,8-26.07-5.5-38.26-36.54-41-35-3.94,2.22,26.95,63.09,22,66-2.06,1.21-9.4-8.18-11-7-1.81,1.34,9.4,12.12,10,26,.87,20.18-21.33,32.3-16,43,1.98,3.97,4.97,2.18,10,8,9.61,11.13,6.33,26.54,6,28-1.21,5.29-4.4,13.01-8,13-2.13,0-2.65-2.71-7-6-3.19-2.41-8.98-5.54-11-4-2.79,2.13,3.59,11.72,5,20,4.18,24.62-33.45,50.49-40,55-39.05,26.86-61.36,14.27-83,41-9.93,12.27-17.89,30.55-22,29-1.32-.5-1.1-2.61-3-11-1.13-4.97-3.89-17.13-6-17-1.05.06-1.57,3.15-2,5-3.65,15.58-20.61,25.76-26,29-2.75,1.65-18.26,10.97-22,7-4.39-4.66,14.82-19.84,11-33-5.21-17.93-45.78-6.47-77-33-22.75-19.33-30.67-50.46-34-49-1.21.53.29,4.46,0,12-.52,13.58-6.4,26.38-9,26-3.24-.47,3.27-20.67-6-41-5.73-12.57-11.76-12.59-32-32-20.47-19.62-39.42-37.79-37-57,1.43-11.3,10.05-21.36,9-22-.85-.52-4.55,7.43-13,11-7.58,3.2-17.03,2.05-18-1-.92-2.9,6.63-4.94,12-12,9.63-12.67-.39-24.93,4-48,3.79-19.93,15.37-32.31,13-34-1.68-1.2-5.93,6.15-16,11-17.74,8.54-36.71,1.21-45-2-4.4-1.7-13.22-5.11-13-9,.2-3.43,7.29-4.6,12-7,13.42-6.83,14.97-27.44,24-91,.14-.95,3.59-23.98,15-40,4.54-6.38,8.68-9.31,12-11,7.9-4.02,16.03-3.42,16-4-.03-.58-8.26.66-17-2-9.95-3.03-19.17-10.69-18-14,1.08-3.07,10.56-.94,36-3,8.74-.71,15.63-1.61,16-4,.24-1.58-2.52-2.59-5-5-8.06-7.81-7.67-24.89-3-27,3.38-1.53,6.45,5.95,18,13,9.1,5.55,18.07,7.03,36,10,14.98,2.48,22.47,3.72,30,2Z"/>
    <path class="cls-18" d="m191,54.2c13.14-3,6.22-4.65,19.5-9.5,17.62-6.44,30-3,51.5-6.5,14.94-2.43,16.78-8.05,31-9,7.55-.51,13.47.66,25,3,25.42,5.17,38.13,7.75,53,16,8.16,4.53,14.4,9.33,25,10,5.27.33,9.18-.52,16-2,4.95-1.08,12.91-3.14,29-10,17.66-7.53,23.19-11.49,26-9,2.69,2.39,1.03,9.05-1,13-3.88,7.56-12.04,10.93-12,11,.05.07,7.63-7.28,17-8,10.43-.8,18.87,6.93,20,8,12.65,11.92,6.48,27.28,17,33,8.01,4.36,16.69-1.79,20,3,2.9,4.19-1.47,12.2-3,15-5.3,9.7-12.06,11.04-12,16,.06,5.09,7.22,6.99,13,12,11.4,9.87,11.67,26.82,12,48,.46,29.06-7.09,40.24,2,53,3.64,5.1,7.78,7.44,7,11-1.45,6.58-18.3,10.89-32,8-26.07-5.5-38.26-36.54-41-35-3.94,2.22,26.95,63.09,22,66-2.06,1.21-9.4-8.18-11-7-1.81,1.34,9.4,12.12,10,26,.87,20.18-21.33,32.3-16,43,1.98,3.97,4.97,2.18,10,8,9.61,11.13,6.33,26.54,6,28-1.21,5.29-4.4,13.01-8,13-2.13,0-2.65-2.71-7-6-3.19-2.41-8.98-5.54-11-4-2.79,2.13,3.59,11.72,5,20,4.18,24.62-33.45,50.49-40,55-39.05,26.86-61.36,14.27-83,41-9.93,12.27-17.89,30.55-22,29-1.32-.5-1.1-2.61-3-11-1.13-4.97-3.89-17.13-6-17-1.05.06-1.57,3.15-2,5-3.65,15.58-20.61,25.76-26,29-2.75,1.65-18.26,10.97-22,7-4.39-4.66,14.82-19.84,11-33-5.21-17.93-45.78-6.47-77-33-22.75-19.33-30.67-50.46-34-49-1.21.53.29,4.46,0,12-.52,13.58-6.4,26.38-9,26-3.24-.47,3.27-20.67-6-41-5.73-12.57-11.76-12.59-32-32-20.47-19.62-39.42-37.79-37-57,1.43-11.3,10.05-21.36,9-22-.85-.52-4.55,7.43-13,11-7.58,3.2-17.03,2.05-18-1-.92-2.9,6.63-4.94,12-12,9.63-12.67-.39-24.93,4-48,3.79-19.93,15.37-32.31,13-34-1.68-1.2-5.93,6.15-16,11-17.74,8.54-36.71,1.21-45-2-4.4-1.7-13.22-5.11-13-9,.2-3.43,7.29-4.6,12-7,13.42-6.83,14.97-27.44,24-91,.14-.95,3.59-23.98,15-40,4.54-6.38,8.68-9.31,12-11,7.9-4.02,16.03-3.42,16-4-.03-.58-8.26.66-17-2-9.95-3.03-19.17-10.69-18-14,1.08-3.07,10.56-.94,36-3,8.74-.71,15.63-1.61,16-4,.24-1.58-2.52-2.59-5-5-8.06-7.81-7.67-24.89-3-27,3.38-1.53,6.45,5.95,18,13,9.1,5.55,18.07,7.03,36,10,14.98,2.48,22.47,3.72,30,2Z"/>
  </g>
  <g>
    <path class="cls-3" d="m258.55,234.59c-14.01-23.83-24.55-34.31-31-40-8.99-7.94-22.33-19.44-33.5-15.5-5.83,2.06-10.64,8.17-9.5,10.5,1.2,2.46,8.68-.07,15,0,12.97.14,24.73,11.28,38,31,25.58,38.02,39.92,82.89,59,98,2.28,1.8,7.72,5.99,14,5,7.44-1.17,13.19-9.16,12-11-.99-1.53-5.97,2.36-12,2-10.5-.63-17.51-13.75-28-34-19.53-37.7-19.7-38.69-24-46Z"/>
    <path class="cls-3" d="m233.55,308.59c-2.94,3.05-8.56-2.62-19-2-8.46.51-12.67,4.7-16,2-1.67-1.35-2.55-3.97-2-6,.66-2.44,3.31-3.66,4-4,8.91-4.34,14.45-13.58,22-20,6.11-5.2,6.89-7.12,35-42,10.37-12.87,22.69-28.02,20-31-1.59-1.77-7.5,1.83-10-1-1.33-1.51-1.35-4.45,0-6,1.77-2.04,4.83-.45,14,0,5.38.27,8.57.42,13,0,4.81-.46,7.13-1.23,8,0,1.05,1.48-.66,4.96-3,7-2.52,2.2-4.86,1.93-8,3-4.75,1.62-7.26,4.92-10,8-6.19,6.99-58.96,64.14-58,79,.08,1.18.24,3.72,2,5,2.56,1.86,6.04-.73,8,1,1.59,1.4,1.73,5.21,0,7Z"/>
  </g>
  <path class="cls-3" d="m386.55,209.59c.42-.74-15.75-17.66-38-16-2.19.16-9.7,1.13-17,5-25.01,13.28-35.19,71.02-9,97,1.7,1.68,13.59,13.13,31,13,20.68-.15,37.28-16.55,44-33,8.13-19.92,4.66-46.98-12-59-14.22-10.26-37.19-8.94-40-3-.68,1.44-.98,3.58,0,5,2.75,3.98,12.22-1.89,22,1,7.23,2.14,11.32,8.1,14,12,9.86,14.36,6.22,31.3,5,37-1.63,7.59-3.79,17.64-13,25-.81.65-13.06,10.21-26,7-20.12-5-29.4-37.42-26-61,2.39-16.57,10.43-29.54,17-33,7.54-3.97,11-4,11-4s3.46-.77,7-1c12.51-.8,29.61,8.69,30,8Z"/>
</svg>